<svg width="30" height="25" viewBox="0 0 30 25" fill="none" xmlns="http://www.w3.org/2000/svg">
<mask id="mask0_1525_1404" style="mask-type:alpha" maskUnits="userSpaceOnUse" x="0" y="1" width="24" height="24">
<rect y="1" width="24" height="24" fill="#D9D9D9"/>
</mask>
<g mask="url(#mask0_1525_1404)">
<path d="M4.00006 19.9996C3.45006 19.9996 2.97923 19.8037 2.58756 19.4121C2.19589 19.0204 2.00006 18.5496 2.00006 17.9996V7.99957C2.00006 7.44957 2.19589 6.97874 2.58756 6.58707C2.97923 6.19541 3.45006 5.99957 4.00006 5.99957H20.0001C20.5501 5.99957 21.0209 6.19541 21.4126 6.58707C21.8042 6.97874 22.0001 7.44957 22.0001 7.99957V17.9996C22.0001 18.5496 21.8042 19.0204 21.4126 19.4121C21.0209 19.8037 20.5501 19.9996 20.0001 19.9996H4.00006ZM17.5001 15.4996H15.7501C15.5334 15.4996 15.3542 15.5704 15.2126 15.7121C15.0709 15.8537 15.0001 16.0329 15.0001 16.2496C15.0001 16.4662 15.0709 16.6454 15.2126 16.7871C15.3542 16.9287 15.5334 16.9996 15.7501 16.9996H18.0001C18.2834 16.9996 18.5209 16.9037 18.7126 16.7121C18.9042 16.5204 19.0001 16.2829 19.0001 15.9996V13.7496C19.0001 13.5329 18.9292 13.3537 18.7876 13.2121C18.6459 13.0704 18.4667 12.9996 18.2501 12.9996C18.0334 12.9996 17.8542 13.0704 17.7126 13.2121C17.5709 13.3537 17.5001 13.5329 17.5001 13.7496V15.4996ZM12.0001 15.9996C12.8334 15.9996 13.5417 15.7079 14.1251 15.1246C14.7084 14.5412 15.0001 13.8329 15.0001 12.9996C15.0001 12.1662 14.7084 11.4579 14.1251 10.8746C13.5417 10.2912 12.8334 9.99957 12.0001 9.99957C11.1667 9.99957 10.4584 10.2912 9.87506 10.8746C9.29173 11.4579 9.00006 12.1662 9.00006 12.9996C9.00006 13.8329 9.29173 14.5412 9.87506 15.1246C10.4584 15.7079 11.1667 15.9996 12.0001 15.9996ZM6.50006 10.4996H8.25006C8.46673 10.4996 8.64589 10.4287 8.78756 10.2871C8.92923 10.1454 9.00006 9.96624 9.00006 9.74957C9.00006 9.53291 8.92923 9.35374 8.78756 9.21207C8.64589 9.07041 8.46673 8.99957 8.25006 8.99957H6.00006C5.71673 8.99957 5.47923 9.09541 5.28756 9.28707C5.09589 9.47874 5.00006 9.71624 5.00006 9.99957V12.2496C5.00006 12.4662 5.07089 12.6454 5.21256 12.7871C5.35423 12.9287 5.53339 12.9996 5.75006 12.9996C5.96673 12.9996 6.14589 12.9287 6.28756 12.7871C6.42923 12.6454 6.50006 12.4662 6.50006 12.2496V10.4996Z" fill="#F6FFF3"/>
</g>
<path d="M23 5H25V7C25 7.28333 25.0958 7.52083 25.2875 7.7125C25.4792 7.90417 25.7167 8 26 8C26.2833 8 26.5208 7.90417 26.7125 7.7125C26.9042 7.52083 27 7.28333 27 7V5H29C29.2833 5 29.5208 4.90417 29.7125 4.7125C29.9042 4.52083 30 4.28333 30 4C30 3.71667 29.9042 3.47917 29.7125 3.2875C29.5208 3.09583 29.2833 3 29 3H27V1C27 0.716667 26.9042 0.479167 26.7125 0.2875C26.5208 0.0958335 26.2833 0 26 0C25.7167 0 25.4792 0.0958335 25.2875 0.2875C25.0958 0.479167 25 0.716667 25 1V3H23C22.7167 3 22.4792 3.09583 22.2875 3.2875C22.0958 3.47917 22 3.71667 22 4C22 4.28333 22.0958 4.52083 22.2875 4.7125C22.4792 4.90417 22.7167 5 23 5Z" fill="#F6FFF3"/>
</svg>
