<svg width="18" height="18" viewBox="0 0 18 18" fill="none" xmlns="http://www.w3.org/2000/svg">
<mask id="mask0_1525_1401" style="mask-type:alpha" maskUnits="userSpaceOnUse" x="0" y="0" width="18" height="18">
<rect width="18" height="18" fill="#D9D9D9"/>
</mask>
<g mask="url(#mask0_1525_1401)">
<path d="M10.8563 9L5.34377 3.4875C5.15627 3.3 5.06565 3.07813 5.0719 2.82188C5.07815 2.56563 5.17502 2.34375 5.36252 2.15625C5.55002 1.96875 5.7719 1.875 6.02815 1.875C6.2844 1.875 6.50627 1.96875 6.69377 2.15625L12.45 7.93125C12.6 8.08125 12.7125 8.25 12.7875 8.4375C12.8625 8.625 12.9 8.8125 12.9 9C12.9 9.1875 12.8625 9.375 12.7875 9.5625C12.7125 9.75 12.6 9.91875 12.45 10.0688L6.67502 15.8438C6.48752 16.0313 6.26877 16.1219 6.01877 16.1156C5.76877 16.1094 5.55002 16.0125 5.36252 15.825C5.17502 15.6375 5.08127 15.4156 5.08127 15.1594C5.08127 14.9031 5.17502 14.6813 5.36252 14.4938L10.8563 9Z" fill="#333333"/>
</g>
</svg>
