<svg width="24" height="24" viewBox="0 0 24 24" fill="none" xmlns="http://www.w3.org/2000/svg">
<mask id="mask0_1525_1398" style="mask-type:alpha" maskUnits="userSpaceOnUse" x="0" y="0" width="24" height="24">
<rect width="24" height="24" fill="#D9D9D9"/>
</mask>
<g mask="url(#mask0_1525_1398)">
<path d="M19.9497 21C17.8664 21 15.8081 20.5458 13.7747 19.6375C11.7414 18.7292 9.89139 17.4417 8.22472 15.775C6.55806 14.1083 5.27056 12.2583 4.36223 10.225C3.45389 8.19167 2.99973 6.13333 2.99973 4.05C2.99973 3.75 3.09973 3.5 3.29973 3.3C3.49973 3.1 3.74973 3 4.04973 3H8.09972C8.33306 3 8.54139 3.07917 8.72472 3.2375C8.90806 3.39583 9.01639 3.58333 9.04972 3.8L9.69972 7.3C9.73306 7.56667 9.72472 7.79167 9.67472 7.975C9.62472 8.15833 9.53306 8.31667 9.39972 8.45L6.97472 10.9C7.30806 11.5167 7.70389 12.1125 8.16222 12.6875C8.62056 13.2625 9.12472 13.8167 9.67472 14.35C10.1914 14.8667 10.7331 15.3458 11.2997 15.7875C11.8664 16.2292 12.4664 16.6333 13.0997 17L15.4497 14.65C15.5997 14.5 15.7956 14.3875 16.0372 14.3125C16.2789 14.2375 16.5164 14.2167 16.7497 14.25L20.1997 14.95C20.4331 15.0167 20.6247 15.1375 20.7747 15.3125C20.9247 15.4875 20.9997 15.6833 20.9997 15.9V19.95C20.9997 20.25 20.8997 20.5 20.6997 20.7C20.4997 20.9 20.2497 21 19.9497 21Z" fill="#F6FFF3"/>
</g>
</svg>
