<svg width="80" height="80" viewBox="0 0 80 80" fill="none" xmlns="http://www.w3.org/2000/svg">
<circle cx="40" cy="40" r="40" fill="#E5EAD9"/>
<g opacity="0.5">
<mask id="mask0_1518_93" style="mask-type:alpha" maskUnits="userSpaceOnUse" x="16" y="16" width="48" height="48">
<rect x="16" y="16" width="48" height="48" fill="#D9D9D9"/>
</mask>
<g mask="url(#mask0_1518_93)">
<path d="M40 40C37.8 40 35.9167 39.2167 34.35 37.65C32.7833 36.0833 32 34.2 32 32C32 29.8 32.7833 27.9167 34.35 26.35C35.9167 24.7833 37.8 24 40 24C42.2 24 44.0833 24.7833 45.65 26.35C47.2167 27.9167 48 29.8 48 32C48 34.2 47.2167 36.0833 45.65 37.65C44.0833 39.2167 42.2 40 40 40ZM24 52V50.4C24 49.2667 24.2917 48.225 24.875 47.275C25.4583 46.325 26.2333 45.6 27.2 45.1C29.2667 44.0667 31.3667 43.2917 33.5 42.775C35.6333 42.2583 37.8 42 40 42C42.2 42 44.3667 42.2583 46.5 42.775C48.6333 43.2917 50.7333 44.0667 52.8 45.1C53.7667 45.6 54.5417 46.325 55.125 47.275C55.7083 48.225 56 49.2667 56 50.4V52C56 53.1 55.6083 54.0417 54.825 54.825C54.0417 55.6083 53.1 56 52 56H28C26.9 56 25.9583 55.6083 25.175 54.825C24.3917 54.0417 24 53.1 24 52Z" fill="#006A44"/>
</g>
</g>
<circle cx="67" cy="66" r="12" fill="#006A44"/>
<mask id="mask1_1518_93" style="mask-type:alpha" maskUnits="userSpaceOnUse" x="61" y="60" width="12" height="12">
<rect x="61" y="60" width="12" height="12" fill="#D9D9D9"/>
</mask>
<g mask="url(#mask1_1518_93)">
<path d="M67 68.75C67.625 68.75 68.1562 68.5312 68.5938 68.0938C69.0312 67.6562 69.25 67.125 69.25 66.5C69.25 65.875 69.0312 65.3438 68.5938 64.9062C68.1562 64.4688 67.625 64.25 67 64.25C66.375 64.25 65.8438 64.4688 65.4062 64.9062C64.9688 65.3438 64.75 65.875 64.75 66.5C64.75 67.125 64.9688 67.6562 65.4062 68.0938C65.8438 68.5312 66.375 68.75 67 68.75ZM67 67.75C66.65 67.75 66.3542 67.6292 66.1125 67.3875C65.8708 67.1458 65.75 66.85 65.75 66.5C65.75 66.15 65.8708 65.8542 66.1125 65.6125C66.3542 65.3708 66.65 65.25 67 65.25C67.35 65.25 67.6458 65.3708 67.8875 65.6125C68.1292 65.8542 68.25 66.15 68.25 66.5C68.25 66.85 68.1292 67.1458 67.8875 67.3875C67.6458 67.6292 67.35 67.75 67 67.75ZM63 70.5C62.725 70.5 62.4896 70.4021 62.2938 70.2063C62.0979 70.0104 62 69.775 62 69.5V63.5C62 63.225 62.0979 62.9896 62.2938 62.7938C62.4896 62.5979 62.725 62.5 63 62.5H64.575L65.2 61.825C65.2917 61.725 65.4021 61.6458 65.5312 61.5875C65.6604 61.5292 65.7958 61.5 65.9375 61.5H68.0625C68.2042 61.5 68.3396 61.5292 68.4688 61.5875C68.5979 61.6458 68.7083 61.725 68.8 61.825L69.425 62.5H71C71.275 62.5 71.5104 62.5979 71.7063 62.7938C71.9021 62.9896 72 63.225 72 63.5V69.5C72 69.775 71.9021 70.0104 71.7063 70.2063C71.5104 70.4021 71.275 70.5 71 70.5H63ZM63 69.5H71V63.5H68.975L68.0625 62.5H65.9375L65.025 63.5H63V69.5Z" fill="#FFF9EA"/>
</g>
</svg>
