<svg width="18" height="18" viewBox="0 0 18 18" fill="none" xmlns="http://www.w3.org/2000/svg">
<mask id="mask0_1518_51" style="mask-type:alpha" maskUnits="userSpaceOnUse" x="0" y="0" width="18" height="18">
<rect width="18" height="18" fill="#D9D9D9"/>
</mask>
<g mask="url(#mask0_1518_51)">
<path d="M10.8563 8.99999L5.34377 3.48749C5.15627 3.29999 5.06565 3.07812 5.0719 2.82187C5.07815 2.56562 5.17502 2.34374 5.36252 2.15624C5.55002 1.96874 5.7719 1.87499 6.02815 1.87499C6.2844 1.87499 6.50627 1.96874 6.69377 2.15624L12.45 7.93124C12.6 8.08124 12.7125 8.24999 12.7875 8.43749C12.8625 8.62499 12.9 8.81249 12.9 8.99999C12.9 9.18749 12.8625 9.37499 12.7875 9.56249C12.7125 9.74999 12.6 9.91874 12.45 10.0687L6.67502 15.8437C6.48752 16.0312 6.26877 16.1219 6.01877 16.1156C5.76877 16.1094 5.55002 16.0125 5.36252 15.825C5.17502 15.6375 5.08127 15.4156 5.08127 15.1594C5.08127 14.9031 5.17502 14.6812 5.36252 14.4937L10.8563 8.99999Z" fill="#333333"/>
</g>
</svg>
