<svg width="56" height="56" viewBox="0 0 56 56" fill="none" xmlns="http://www.w3.org/2000/svg">
<circle cx="28" cy="28" r="28" fill="#006A44"/>
<mask id="mask0_1518_74" style="mask-type:alpha" maskUnits="userSpaceOnUse" x="13" y="17" width="24" height="24">
<rect x="13" y="17" width="24" height="24" fill="#D9D9D9"/>
</mask>
<g mask="url(#mask0_1518_74)">
<path d="M17.0001 35.9996C16.4501 35.9996 15.9792 35.8037 15.5876 35.4121C15.1959 35.0204 15.0001 34.5496 15.0001 33.9996V23.9996C15.0001 23.4496 15.1959 22.9787 15.5876 22.5871C15.9792 22.1954 16.4501 21.9996 17.0001 21.9996H33.0001C33.5501 21.9996 34.0209 22.1954 34.4126 22.5871C34.8042 22.9787 35.0001 23.4496 35.0001 23.9996V33.9996C35.0001 34.5496 34.8042 35.0204 34.4126 35.4121C34.0209 35.8037 33.5501 35.9996 33.0001 35.9996H17.0001ZM30.5001 31.4996H28.7501C28.5334 31.4996 28.3542 31.5704 28.2126 31.7121C28.0709 31.8537 28.0001 32.0329 28.0001 32.2496C28.0001 32.4662 28.0709 32.6454 28.2126 32.7871C28.3542 32.9287 28.5334 32.9996 28.7501 32.9996H31.0001C31.2834 32.9996 31.5209 32.9037 31.7126 32.7121C31.9042 32.5204 32.0001 32.2829 32.0001 31.9996V29.7496C32.0001 29.5329 31.9292 29.3537 31.7876 29.2121C31.6459 29.0704 31.4667 28.9996 31.2501 28.9996C31.0334 28.9996 30.8542 29.0704 30.7126 29.2121C30.5709 29.3537 30.5001 29.5329 30.5001 29.7496V31.4996ZM25.0001 31.9996C25.8334 31.9996 26.5417 31.7079 27.1251 31.1246C27.7084 30.5412 28.0001 29.8329 28.0001 28.9996C28.0001 28.1662 27.7084 27.4579 27.1251 26.8746C26.5417 26.2912 25.8334 25.9996 25.0001 25.9996C24.1667 25.9996 23.4584 26.2912 22.8751 26.8746C22.2917 27.4579 22.0001 28.1662 22.0001 28.9996C22.0001 29.8329 22.2917 30.5412 22.8751 31.1246C23.4584 31.7079 24.1667 31.9996 25.0001 31.9996ZM19.5001 26.4996H21.2501C21.4667 26.4996 21.6459 26.4287 21.7876 26.2871C21.9292 26.1454 22.0001 25.9662 22.0001 25.7496C22.0001 25.5329 21.9292 25.3537 21.7876 25.2121C21.6459 25.0704 21.4667 24.9996 21.2501 24.9996H19.0001C18.7167 24.9996 18.4792 25.0954 18.2876 25.2871C18.0959 25.4787 18.0001 25.7162 18.0001 25.9996V28.2496C18.0001 28.4662 18.0709 28.6454 18.2126 28.7871C18.3542 28.9287 18.5334 28.9996 18.7501 28.9996C18.9667 28.9996 19.1459 28.9287 19.2876 28.7871C19.4292 28.6454 19.5001 28.4662 19.5001 28.2496V26.4996Z" fill="#F6FFF3"/>
</g>
<path d="M36 21H38V23C38 23.2833 38.0958 23.5208 38.2875 23.7125C38.4792 23.9042 38.7167 24 39 24C39.2833 24 39.5208 23.9042 39.7125 23.7125C39.9042 23.5208 40 23.2833 40 23V21H42C42.2833 21 42.5208 20.9042 42.7125 20.7125C42.9042 20.5208 43 20.2833 43 20C43 19.7167 42.9042 19.4792 42.7125 19.2875C42.5208 19.0958 42.2833 19 42 19H40V17C40 16.7167 39.9042 16.4792 39.7125 16.2875C39.5208 16.0958 39.2833 16 39 16C38.7167 16 38.4792 16.0958 38.2875 16.2875C38.0958 16.4792 38 16.7167 38 17V19H36C35.7167 19 35.4792 19.0958 35.2875 19.2875C35.0958 19.4792 35 19.7167 35 20C35 20.2833 35.0958 20.5208 35.2875 20.7125C35.4792 20.9042 35.7167 21 36 21Z" fill="#F6FFF3"/>
</svg>
