<svg width="56" height="56" viewBox="0 0 56 56" fill="none" xmlns="http://www.w3.org/2000/svg">
<circle cx="28" cy="28" r="28" fill="#006A44"/>
<mask id="mask0_1518_83" style="mask-type:alpha" maskUnits="userSpaceOnUse" x="16" y="16" width="24" height="24">
<rect x="16" y="16" width="24" height="24" fill="#D9D9D9"/>
</mask>
<g mask="url(#mask0_1518_83)">
<path d="M34 27H32C31.7167 27 31.4792 26.9042 31.2875 26.7125C31.0958 26.5208 31 26.2833 31 26C31 25.7167 31.0958 25.4792 31.2875 25.2875C31.4792 25.0958 31.7167 25 32 25H34V23C34 22.7167 34.0958 22.4792 34.2875 22.2875C34.4792 22.0958 34.7167 22 35 22C35.2833 22 35.5208 22.0958 35.7125 22.2875C35.9042 22.4792 36 22.7167 36 23V25H38C38.2833 25 38.5208 25.0958 38.7125 25.2875C38.9042 25.4792 39 25.7167 39 26C39 26.2833 38.9042 26.5208 38.7125 26.7125C38.5208 26.9042 38.2833 27 38 27H36V29C36 29.2833 35.9042 29.5208 35.7125 29.7125C35.5208 29.9042 35.2833 30 35 30C34.7167 30 34.4792 29.9042 34.2875 29.7125C34.0958 29.5208 34 29.2833 34 29V27ZM25 28C23.9 28 22.9583 27.6083 22.175 26.825C21.3917 26.0417 21 25.1 21 24C21 22.9 21.3917 21.9583 22.175 21.175C22.9583 20.3917 23.9 20 25 20C26.1 20 27.0417 20.3917 27.825 21.175C28.6083 21.9583 29 22.9 29 24C29 25.1 28.6083 26.0417 27.825 26.825C27.0417 27.6083 26.1 28 25 28ZM17 34V33.2C17 32.6333 17.1458 32.1125 17.4375 31.6375C17.7292 31.1625 18.1167 30.8 18.6 30.55C19.6333 30.0333 20.6833 29.6458 21.75 29.3875C22.8167 29.1292 23.9 29 25 29C26.1 29 27.1833 29.1292 28.25 29.3875C29.3167 29.6458 30.3667 30.0333 31.4 30.55C31.8833 30.8 32.2708 31.1625 32.5625 31.6375C32.8542 32.1125 33 32.6333 33 33.2V34C33 34.55 32.8042 35.0208 32.4125 35.4125C32.0208 35.8042 31.55 36 31 36H19C18.45 36 17.9792 35.8042 17.5875 35.4125C17.1958 35.0208 17 34.55 17 34Z" fill="#F6FFF3"/>
</g>
</svg>
