<svg width="56" height="56" viewBox="0 0 56 56" fill="none" xmlns="http://www.w3.org/2000/svg">
<circle cx="28" cy="28" r="28" fill="#006A44"/>
<mask id="mask0_1518_88" style="mask-type:alpha" maskUnits="userSpaceOnUse" x="13" y="13" width="30" height="30">
<rect x="13.3336" y="13.3333" width="29.3333" height="29.3333" fill="#D9D9D9"/>
</mask>
<g mask="url(#mask0_1518_88)">
<path d="M37.7165 39C35.1702 39 32.6545 38.4449 30.1693 37.3347C27.6841 36.2245 25.423 34.6509 23.386 32.6139C21.349 30.5768 19.7753 28.3157 18.6652 25.8305C17.555 23.3453 16.9999 20.8296 16.9999 18.2833C16.9999 17.9166 17.1221 17.6111 17.3665 17.3666C17.611 17.1222 17.9165 17 18.2832 17H23.2332C23.5184 17 23.773 17.0967 23.9971 17.2902C24.2212 17.4838 24.3536 17.7129 24.3943 17.9777L25.1888 22.2555C25.2295 22.5815 25.2193 22.8564 25.1582 23.0805C25.0971 23.3046 24.9851 23.4981 24.8221 23.6611L21.8582 26.6555C22.2656 27.4092 22.7494 28.1375 23.3096 28.8402C23.8698 29.543 24.486 30.2203 25.1582 30.8722C25.7897 31.5037 26.4517 32.0893 27.1443 32.6291C27.8369 33.1689 28.5702 33.6629 29.3443 34.1111L32.2165 31.2389C32.3999 31.0555 32.6392 30.918 32.9346 30.8264C33.23 30.7347 33.5202 30.7092 33.8054 30.75L38.0221 31.6055C38.3073 31.687 38.5415 31.8347 38.7249 32.0486C38.9082 32.2625 38.9999 32.5018 38.9999 32.7666V37.7166C38.9999 38.0833 38.8777 38.3889 38.6332 38.6333C38.3888 38.8777 38.0832 39 37.7165 39Z" fill="#FBFCFE"/>
</g>
</svg>
