<svg width="154" height="48" viewBox="0 0 154 48" fill="none" xmlns="http://www.w3.org/2000/svg">
<rect x="0.5" y="0.5" width="153" height="47" rx="9.5" stroke="#006A44"/>
<path d="M60.648 29.196C59.4347 29.196 58.4733 28.86 57.764 28.188C57.0547 27.5067 56.7 26.536 56.7 25.276V22.924C56.7 21.664 57.0547 20.698 57.764 20.026C58.4733 19.3447 59.4347 19.004 60.648 19.004C61.852 19.004 62.7807 19.3353 63.434 19.998C64.0967 20.6513 64.428 21.552 64.428 22.7V22.784H62.608V22.644C62.608 22.0653 62.4447 21.5893 62.118 21.216C61.8007 20.8427 61.3107 20.656 60.648 20.656C59.9947 20.656 59.4813 20.8567 59.108 21.258C58.7347 21.6593 58.548 22.2053 58.548 22.896V25.304C58.548 25.9853 58.7347 26.5313 59.108 26.942C59.4813 27.3433 59.9947 27.544 60.648 27.544C61.3107 27.544 61.8007 27.3573 62.118 26.984C62.4447 26.6013 62.608 26.1253 62.608 25.556V25.304H64.428V25.5C64.428 26.648 64.0967 27.5533 63.434 28.216C62.7807 28.8693 61.852 29.196 60.648 29.196ZM65.9338 29V19.2H67.7818V27.32H72.2618V29H65.9338ZM77.0015 29.196C75.7695 29.196 74.7895 28.86 74.0615 28.188C73.3335 27.5067 72.9695 26.536 72.9695 25.276V22.924C72.9695 21.664 73.3335 20.698 74.0615 20.026C74.7895 19.3447 75.7695 19.004 77.0015 19.004C78.2335 19.004 79.2135 19.3447 79.9415 20.026C80.6695 20.698 81.0335 21.664 81.0335 22.924V25.276C81.0335 26.536 80.6695 27.5067 79.9415 28.188C79.2135 28.86 78.2335 29.196 77.0015 29.196ZM77.0015 27.544C77.6922 27.544 78.2289 27.3433 78.6115 26.942C78.9942 26.5407 79.1855 26.004 79.1855 25.332V22.868C79.1855 22.196 78.9942 21.6593 78.6115 21.258C78.2289 20.8567 77.6922 20.656 77.0015 20.656C76.3202 20.656 75.7835 20.8567 75.3915 21.258C75.0089 21.6593 74.8175 22.196 74.8175 22.868V25.332C74.8175 26.004 75.0089 26.5407 75.3915 26.942C75.7835 27.3433 76.3202 27.544 77.0015 27.544ZM86.0565 29.196C85.3005 29.196 84.6331 29.0607 84.0545 28.79C83.4758 28.5193 83.0231 28.132 82.6965 27.628C82.3698 27.124 82.2065 26.5173 82.2065 25.808V25.416H84.0265V25.808C84.0265 26.396 84.2085 26.8393 84.5725 27.138C84.9365 27.4273 85.4311 27.572 86.0565 27.572C86.6911 27.572 87.1625 27.446 87.4705 27.194C87.7878 26.942 87.9465 26.62 87.9465 26.228C87.9465 25.9573 87.8671 25.738 87.7085 25.57C87.5591 25.402 87.3351 25.2667 87.0365 25.164C86.7471 25.052 86.3925 24.9493 85.9725 24.856L85.6505 24.786C84.9785 24.6367 84.3998 24.45 83.9145 24.226C83.4385 23.9927 83.0698 23.6893 82.8085 23.316C82.5565 22.9427 82.4305 22.4573 82.4305 21.86C82.4305 21.2627 82.5705 20.754 82.8505 20.334C83.1398 19.9047 83.5411 19.578 84.0545 19.354C84.5771 19.1207 85.1885 19.004 85.8885 19.004C86.5885 19.004 87.2091 19.1253 87.7505 19.368C88.3011 19.6013 88.7305 19.956 89.0385 20.432C89.3558 20.8987 89.5145 21.4867 89.5145 22.196V22.616H87.6945V22.196C87.6945 21.8227 87.6198 21.524 87.4705 21.3C87.3305 21.0667 87.1251 20.8987 86.8545 20.796C86.5838 20.684 86.2618 20.628 85.8885 20.628C85.3285 20.628 84.9131 20.7353 84.6425 20.95C84.3811 21.1553 84.2505 21.44 84.2505 21.804C84.2505 22.0467 84.3111 22.252 84.4325 22.42C84.5631 22.588 84.7545 22.728 85.0065 22.84C85.2585 22.952 85.5805 23.05 85.9725 23.134L86.2945 23.204C86.9945 23.3533 87.6011 23.5447 88.1145 23.778C88.6371 24.0113 89.0431 24.3193 89.3325 24.702C89.6218 25.0847 89.7665 25.5747 89.7665 26.172C89.7665 26.7693 89.6125 27.2967 89.3045 27.754C89.0058 28.202 88.5765 28.5567 88.0165 28.818C87.4658 29.07 86.8125 29.196 86.0565 29.196ZM91.1447 29V19.2H97.4447V20.88H92.9927V23.218H97.0527V24.898H92.9927V27.32H97.5287V29H91.1447Z" fill="#006A44"/>
</svg>
