<svg width="154" height="48" viewBox="0 0 154 48" fill="none" xmlns="http://www.w3.org/2000/svg">
<rect width="154" height="48" rx="10" fill="#006A44"/>
<path d="M55.326 29.196C54.57 29.196 53.9027 29.0607 53.324 28.79C52.7453 28.5193 52.2927 28.132 51.966 27.628C51.6393 27.124 51.476 26.5173 51.476 25.808V25.416H53.296V25.808C53.296 26.396 53.478 26.8393 53.842 27.138C54.206 27.4273 54.7007 27.572 55.326 27.572C55.9607 27.572 56.432 27.446 56.74 27.194C57.0573 26.942 57.216 26.62 57.216 26.228C57.216 25.9573 57.1367 25.738 56.978 25.57C56.8287 25.402 56.6047 25.2667 56.306 25.164C56.0167 25.052 55.662 24.9493 55.242 24.856L54.92 24.786C54.248 24.6367 53.6693 24.45 53.184 24.226C52.708 23.9927 52.3393 23.6893 52.078 23.316C51.826 22.9427 51.7 22.4573 51.7 21.86C51.7 21.2627 51.84 20.754 52.12 20.334C52.4093 19.9047 52.8107 19.578 53.324 19.354C53.8467 19.1207 54.458 19.004 55.158 19.004C55.858 19.004 56.4787 19.1253 57.02 19.368C57.5707 19.6013 58 19.956 58.308 20.432C58.6253 20.8987 58.784 21.4867 58.784 22.196V22.616H56.964V22.196C56.964 21.8227 56.8893 21.524 56.74 21.3C56.6 21.0667 56.3947 20.8987 56.124 20.796C55.8533 20.684 55.5313 20.628 55.158 20.628C54.598 20.628 54.1827 20.7353 53.912 20.95C53.6507 21.1553 53.52 21.44 53.52 21.804C53.52 22.0467 53.5807 22.252 53.702 22.42C53.8327 22.588 54.024 22.728 54.276 22.84C54.528 22.952 54.85 23.05 55.242 23.134L55.564 23.204C56.264 23.3533 56.8707 23.5447 57.384 23.778C57.9067 24.0113 58.3127 24.3193 58.602 24.702C58.8913 25.0847 59.036 25.5747 59.036 26.172C59.036 26.7693 58.882 27.2967 58.574 27.754C58.2753 28.202 57.846 28.5567 57.286 28.818C56.7353 29.07 56.082 29.196 55.326 29.196ZM64.1942 29.196C63.3916 29.196 62.7009 29.0513 62.1222 28.762C61.5529 28.4633 61.1142 28.0433 60.8062 27.502C60.5076 26.9513 60.3582 26.3027 60.3582 25.556V19.2H62.2062V25.612C62.2062 26.2093 62.3742 26.6807 62.7102 27.026C63.0556 27.3713 63.5502 27.544 64.1942 27.544C64.8382 27.544 65.3282 27.3713 65.6642 27.026C66.0096 26.6807 66.1822 26.2093 66.1822 25.612V19.2H68.0302V25.556C68.0302 26.3027 67.8762 26.9513 67.5682 27.502C67.2696 28.0433 66.8309 28.4633 66.2522 28.762C65.6829 29.0513 64.9969 29.196 64.1942 29.196ZM69.5405 29V27.376H70.8285V20.824H69.5405V19.2H74.5805C75.1778 19.2 75.6958 19.3027 76.1345 19.508C76.5825 19.704 76.9278 19.9887 77.1705 20.362C77.4225 20.726 77.5485 21.1647 77.5485 21.678V21.818C77.5485 22.266 77.4645 22.6347 77.2965 22.924C77.1285 23.204 76.9278 23.4233 76.6945 23.582C76.4705 23.7313 76.2558 23.8387 76.0505 23.904V24.156C76.2558 24.212 76.4798 24.3193 76.7225 24.478C76.9652 24.6273 77.1705 24.8467 77.3385 25.136C77.5158 25.4253 77.6045 25.8033 77.6045 26.27V26.41C77.6045 26.9513 77.4785 27.418 77.2265 27.81C76.9745 28.1927 76.6245 28.4867 76.1765 28.692C75.7378 28.8973 75.2245 29 74.6365 29H69.5405ZM72.6765 27.32H74.4125C74.8138 27.32 75.1358 27.222 75.3785 27.026C75.6305 26.83 75.7565 26.55 75.7565 26.186V26.046C75.7565 25.682 75.6352 25.402 75.3925 25.206C75.1498 25.01 74.8232 24.912 74.4125 24.912H72.6765V27.32ZM72.6765 23.232H74.3845C74.7672 23.232 75.0798 23.134 75.3225 22.938C75.5745 22.742 75.7005 22.4713 75.7005 22.126V21.986C75.7005 21.6313 75.5792 21.3607 75.3365 21.174C75.0938 20.978 74.7765 20.88 74.3845 20.88H72.6765V23.232ZM79.1174 29V19.2H82.5474L84.2414 27.74H84.4934L86.1874 19.2H89.6174V29H87.8254V20.558H87.5734L85.8934 29H82.8414L81.1614 20.558H80.9094V29H79.1174ZM91.4631 29V19.2H93.3111V29H91.4631ZM97.4225 29V20.88H94.5665V19.2H102.126V20.88H99.2705V29H97.4225Z" fill="#FBFCFE"/>
</svg>
