<svg width="117" height="31" viewBox="0 0 117 31" fill="none" xmlns="http://www.w3.org/2000/svg">
<rect width="117" height="31" rx="10" fill="#006A44" fill-opacity="0.24"/>
<path d="M27.984 20.168C26.944 20.168 26.12 19.88 25.512 19.304C24.904 18.72 24.6 17.888 24.6 16.808V14.792C24.6 13.712 24.904 12.884 25.512 12.308C26.12 11.724 26.944 11.432 27.984 11.432C29.016 11.432 29.812 11.716 30.372 12.284C30.94 12.844 31.224 13.616 31.224 14.6V14.672H29.664V14.552C29.664 14.056 29.524 13.648 29.244 13.328C28.972 13.008 28.552 12.848 27.984 12.848C27.424 12.848 26.984 13.02 26.664 13.364C26.344 13.708 26.184 14.176 26.184 14.768V16.832C26.184 17.416 26.344 17.884 26.664 18.236C26.984 18.58 27.424 18.752 27.984 18.752C28.552 18.752 28.972 18.592 29.244 18.272C29.524 17.944 29.664 17.536 29.664 17.048V16.832H31.224V17C31.224 17.984 30.94 18.76 30.372 19.328C29.812 19.888 29.016 20.168 27.984 20.168ZM35.7787 20.168C34.7227 20.168 33.8827 19.88 33.2587 19.304C32.6347 18.72 32.3227 17.888 32.3227 16.808V14.792C32.3227 13.712 32.6347 12.884 33.2587 12.308C33.8827 11.724 34.7227 11.432 35.7787 11.432C36.8347 11.432 37.6747 11.724 38.2987 12.308C38.9227 12.884 39.2347 13.712 39.2347 14.792V16.808C39.2347 17.888 38.9227 18.72 38.2987 19.304C37.6747 19.88 36.8347 20.168 35.7787 20.168ZM35.7787 18.752C36.3707 18.752 36.8307 18.58 37.1587 18.236C37.4867 17.892 37.6507 17.432 37.6507 16.856V14.744C37.6507 14.168 37.4867 13.708 37.1587 13.364C36.8307 13.02 36.3707 12.848 35.7787 12.848C35.1947 12.848 34.7347 13.02 34.3987 13.364C34.0707 13.708 33.9067 14.168 33.9067 14.744V16.856C33.9067 17.432 34.0707 17.892 34.3987 18.236C34.7347 18.58 35.1947 18.752 35.7787 18.752ZM40.624 20V11.6H43.564L45.016 18.92H45.232L46.684 11.6H49.624V20H48.088V12.764H47.872L46.432 20H43.816L42.376 12.764H42.16V20H40.624ZM51.2061 20V11.6H54.6621C55.1901 11.6 55.6541 11.708 56.0541 11.924C56.4621 12.132 56.7781 12.428 57.0021 12.812C57.2341 13.196 57.3501 13.652 57.3501 14.18V14.348C57.3501 14.868 57.2301 15.324 56.9901 15.716C56.7581 16.1 56.4381 16.4 56.0301 16.616C55.6301 16.824 55.1741 16.928 54.6621 16.928H52.7901V20H51.2061ZM52.7901 15.488H54.5061C54.8821 15.488 55.1861 15.384 55.4181 15.176C55.6501 14.968 55.7661 14.684 55.7661 14.324V14.204C55.7661 13.844 55.6501 13.56 55.4181 13.352C55.1861 13.144 54.8821 13.04 54.5061 13.04H52.7901V15.488ZM58.4482 20V11.6H60.0323V18.56H63.8723V20H58.4482ZM64.9522 20V11.6H70.3522V13.04H66.5362V15.044H70.0162V16.484H66.5362V18.56H70.4242V20H64.9522ZM73.5407 20V13.04H71.0927V11.6H77.5727V13.04H75.1247V20H73.5407ZM78.6514 20V11.6H84.0514V13.04H80.2354V15.044H83.7154V16.484H80.2354V18.56H84.1234V20H78.6514ZM85.0559 20V18.608H86.1599V12.992H85.0559V11.6H88.5119C89.6399 11.6 90.4959 11.888 91.0799 12.464C91.6719 13.032 91.9679 13.88 91.9679 15.008V16.592C91.9679 17.72 91.6719 18.572 91.0799 19.148C90.4959 19.716 89.6399 20 88.5119 20H85.0559ZM87.7439 18.56H88.5359C89.1759 18.56 89.6439 18.392 89.9399 18.056C90.2359 17.72 90.3839 17.248 90.3839 16.64V14.96C90.3839 14.344 90.2359 13.872 89.9399 13.544C89.6439 13.208 89.1759 13.04 88.5359 13.04H87.7439V18.56Z" fill="#006A44"/>
</svg>
