<svg width="98" height="31" viewBox="0 0 98 31" fill="none" xmlns="http://www.w3.org/2000/svg">
<rect width="98" height="31" rx="10" fill="#FFD0A5"/>
<path d="M24.792 20V11.6H28.248C28.776 11.6 29.24 11.708 29.64 11.924C30.048 12.132 30.364 12.428 30.588 12.812C30.82 13.196 30.936 13.652 30.936 14.18V14.348C30.936 14.868 30.816 15.324 30.576 15.716C30.344 16.1 30.024 16.4 29.616 16.616C29.216 16.824 28.76 16.928 28.248 16.928H26.376V20H24.792ZM26.376 15.488H28.092C28.468 15.488 28.772 15.384 29.004 15.176C29.236 14.968 29.352 14.684 29.352 14.324V14.204C29.352 13.844 29.236 13.56 29.004 13.352C28.772 13.144 28.468 13.04 28.092 13.04H26.376V15.488ZM32.0342 20V11.6H37.4342V13.04H33.6182V15.044H37.0982V16.484H33.6182V18.56H37.5062V20H32.0342ZM38.6787 20V11.6H41.6907L43.3587 18.92H43.5747V11.6H45.1347V20H42.1227L40.4547 12.68H40.2387V20H38.6787ZM46.4778 20V18.608H47.5818V12.992H46.4778V11.6H49.9338C51.0618 11.6 51.9178 11.888 52.5018 12.464C53.0938 13.032 53.3898 13.88 53.3898 15.008V16.592C53.3898 17.72 53.0938 18.572 52.5018 19.148C51.9178 19.716 51.0618 20 49.9338 20H46.4778ZM49.1658 18.56H49.9578C50.5978 18.56 51.0658 18.392 51.3618 18.056C51.6578 17.72 51.8058 17.248 51.8058 16.64V14.96C51.8058 14.344 51.6578 13.872 51.3618 13.544C51.0658 13.208 50.5978 13.04 49.9578 13.04H49.1658V18.56ZM54.71 20V11.6H56.294V20H54.71ZM57.874 20V11.6H60.886L62.554 18.92H62.77V11.6H64.33V20H61.318L59.65 12.68H59.434V20H57.874ZM68.8171 20.168C68.2411 20.168 67.7171 20.04 67.2451 19.784C66.7811 19.52 66.4091 19.14 66.1291 18.644C65.8571 18.14 65.7211 17.528 65.7211 16.808V14.792C65.7211 13.712 66.0251 12.884 66.6331 12.308C67.2411 11.724 68.0651 11.432 69.1051 11.432C70.1371 11.432 70.9331 11.708 71.4931 12.26C72.0611 12.804 72.3451 13.544 72.3451 14.48V14.528H70.7851V14.432C70.7851 14.136 70.7211 13.868 70.5931 13.628C70.4731 13.388 70.2891 13.2 70.0411 13.064C69.7931 12.92 69.4811 12.848 69.1051 12.848C68.5451 12.848 68.1051 13.02 67.7851 13.364C67.4651 13.708 67.3051 14.176 67.3051 14.768V16.832C67.3051 17.416 67.4651 17.888 67.7851 18.248C68.1051 18.6 68.5531 18.776 69.1291 18.776C69.7051 18.776 70.1251 18.624 70.3891 18.32C70.6531 18.016 70.7851 17.632 70.7851 17.168V17.048H68.7931V15.704H72.3451V20H70.8811V19.196H70.6651C70.6091 19.332 70.5171 19.476 70.3891 19.628C70.2691 19.78 70.0851 19.908 69.8371 20.012C69.5891 20.116 69.2491 20.168 68.8171 20.168Z" fill="#884100"/>
</svg>
